<svg version="1.1" id="Layer_1" xmlns="http://www.w3.org/2000/svg" xmlns:xlink="http://www.w3.org/1999/xlink" x="0px" y="0px"
	 width="100%" viewBox="0 0 500 500" enable-background="new 0 0 500 500" xml:space="preserve">
<path fill="#FFFFFF" opacity="1.000000" stroke="none" 
	d="
M270.000000,501.000000 
	C180.000015,501.000000 90.500046,501.000000 1.000048,501.000000 
	C1.000032,334.333405 1.000032,167.666794 1.000016,1.000138 
	C167.666565,1.000092 334.333130,1.000092 500.999756,1.000046 
	C500.999847,167.666519 500.999847,334.333038 500.999939,500.999786 
	C424.166656,501.000000 347.333344,501.000000 270.000000,501.000000 
M287.452362,276.800842 
	C287.726288,276.598602 287.910614,276.333954 288.569305,275.733276 
	C288.924072,275.058228 289.278809,274.383179 289.633575,273.708130 
	C289.319824,273.589539 289.006042,273.470947 288.692291,273.352356 
	C288.459076,274.233093 288.225861,275.113861 287.545563,276.199127 
	C287.266266,276.397217 287.080383,276.661133 286.545441,277.199890 
	C286.268951,277.398529 286.084412,277.661652 285.395233,278.025665 
	C284.927338,278.346436 284.459442,278.667206 283.147583,279.011566 
	C279.364227,279.336761 275.578247,279.634613 271.798401,279.996368 
	C269.065277,280.257935 267.854187,279.232025 267.960358,276.340302 
	C268.125153,271.851807 268.158813,267.345612 267.950134,262.860748 
	C267.802002,259.677734 269.177063,258.725677 272.087799,258.977386 
	C276.540955,259.362396 281.003845,259.635345 285.462585,259.955902 
	C285.526642,259.518707 285.590668,259.081543 285.654694,258.644379 
	C281.621338,258.098694 277.599304,257.215637 273.552216,257.080292 
	C266.026825,256.828552 266.020752,257.010010 266.015564,264.269043 
	C266.007935,274.934326 266.007843,274.935089 255.367828,273.797363 
	C255.248779,273.784668 255.145966,273.620056 254.387360,272.975983 
	C256.786255,272.975983 258.565674,272.949432 260.343994,272.982025 
	C263.222321,273.034729 264.479980,271.313507 263.813599,268.868011 
	C263.491333,267.685272 261.706451,266.513519 260.349976,266.095459 
	C258.538086,265.537018 256.498840,265.716156 254.557236,265.578491 
	C254.581924,265.136597 254.606613,264.694702 254.631287,264.252777 
	C257.976288,264.076782 261.321259,263.900787 264.572449,263.729736 
	C264.572449,261.232758 264.572449,259.340759 264.572449,257.021393 
	C259.024597,257.021393 253.883163,256.857513 248.770050,257.164886 
	C247.791473,257.223724 246.175995,259.107147 246.130020,260.202393 
	C245.871933,266.350739 245.873047,272.520782 246.122910,278.669739 
	C246.168793,279.799225 247.713043,281.758209 248.654602,281.813263 
	C253.917343,282.120911 259.207397,281.961243 264.514099,281.961243 
	C264.857941,279.951965 265.097015,278.555145 265.507812,276.154572 
	C266.841064,282.840942 278.020721,283.916321 284.610107,278.977692 
	C285.076660,278.654480 285.543213,278.331238 286.451996,277.798767 
	C286.728149,277.600555 286.913910,277.338318 287.452362,276.800842 
M308.899841,260.695190 
	C308.806976,260.645691 308.714081,260.596191 308.621216,260.546692 
	C308.742584,260.701721 308.863953,260.856720 309.196411,261.454681 
	C309.394318,261.732635 309.657379,261.918182 310.032837,262.647644 
	C310.621033,263.221405 311.209229,263.795197 311.797424,264.368958 
	C312.203186,263.583984 312.608917,262.799042 313.584473,261.945282 
	C313.905518,261.631500 314.226593,261.317719 314.547638,261.003937 
	C314.338928,260.821198 314.130188,260.638428 313.921478,260.455688 
	C313.609894,260.966003 313.298279,261.476288 312.487000,262.179535 
	C311.661560,262.115204 310.836151,262.050873 309.799347,261.544128 
	C309.603577,261.264008 309.341217,261.077545 308.899841,260.695190 
M233.425278,274.261749 
	C233.071579,274.939117 232.717865,275.616516 232.364166,276.293915 
	C232.677414,276.412964 232.990662,276.532013 233.303909,276.651093 
	C233.541763,275.771881 233.779602,274.892700 234.457962,273.802277 
	C234.729111,273.599304 234.912476,273.335327 235.590714,273.557281 
	C235.729813,274.861176 236.038803,276.173553 235.974121,277.467255 
	C235.819733,280.556030 236.935883,282.103241 240.260025,282.018250 
	C243.499359,281.935455 244.038834,280.092651 244.003632,277.432831 
	C243.933365,272.123535 243.931442,266.811981 244.003891,261.502777 
	C244.040619,258.811493 243.424423,256.980530 240.204727,256.984436 
	C237.064133,256.988251 235.580338,258.293060 235.596512,261.122681 
	C237.525375,260.474762 239.237457,259.899689 240.949524,259.324585 
	C241.298599,261.014557 241.893524,262.696533 241.948517,264.396027 
	C242.087967,268.705811 242.079605,273.027344 241.899887,277.334564 
	C241.864044,278.193634 240.803085,279.009979 240.214844,279.846008 
	C239.479279,278.989380 238.198242,278.185394 238.109467,277.266296 
	C237.833008,274.403778 238.008148,271.497650 238.008148,268.608429 
	C237.488602,268.525879 236.969070,268.443329 236.449524,268.360779 
	C235.962708,269.904358 235.475876,271.447906 234.544937,273.195984 
	C234.272247,273.396881 234.086273,273.659241 233.425278,274.261749 
M283.003754,266.246155 
	C282.006927,265.492950 281.010071,264.739777 279.464844,263.398560 
	C277.430237,263.398560 275.395599,263.398560 273.367004,263.398560 
	C273.367004,267.789642 273.367004,271.672882 273.367004,276.848907 
	C276.728394,275.744812 279.370300,274.877075 282.658203,273.653809 
	C282.776550,271.431519 282.894897,269.209229 283.003754,266.246155 
M225.063782,273.576843 
	C225.371262,273.895569 225.678757,274.214294 225.986252,274.533020 
	C226.166916,274.323334 226.347580,274.113647 226.528244,273.903961 
	C226.023117,273.598480 225.517990,273.292999 225.011154,272.265594 
	C224.623825,271.399414 224.236496,270.533264 223.849152,269.667084 
	C222.972092,272.393951 223.229568,274.897034 222.848007,277.298584 
	C222.690750,278.288361 221.159943,279.059845 220.253860,279.930634 
	C219.512283,279.062164 218.157288,278.213531 218.128387,277.321991 
	C217.936691,271.404907 218.029129,265.478638 218.029129,259.261810 
	C220.075531,259.161469 221.530365,259.090149 223.102570,259.306641 
	C223.196243,259.355286 223.289902,259.403961 223.383575,259.452606 
	C223.262192,259.296600 223.140823,259.140625 222.853699,258.222961 
	C220.656555,256.570099 217.549622,255.666458 217.247803,259.027924 
	C216.577896,266.488922 217.039032,274.051483 217.039032,281.538239 
	C223.399216,281.603455 223.666550,281.329742 224.040588,276.164124 
	C224.117920,275.096161 224.660568,274.061890 225.063782,273.576843 
M300.387115,277.407471 
	C300.252869,274.443573 299.857941,271.460938 300.069427,268.521942 
	C300.229614,266.296051 300.731384,263.858368 301.877258,262.007935 
	C302.969177,260.244476 305.092072,259.119415 306.844360,257.644135 
	C306.191986,257.493530 305.151428,257.093475 304.091461,257.033081 
	C291.989838,256.343597 291.989044,256.357422 291.988861,268.260345 
	C291.988647,281.758759 291.988678,281.759277 305.552429,280.900330 
	C305.698578,280.891083 305.838287,280.780273 305.733856,280.826691 
	C304.245911,279.939362 302.631104,278.976410 301.307587,277.901642 
	C301.201080,277.929535 301.094574,277.957397 300.387115,277.407471 
M175.157379,285.690002 
	C181.576401,290.202606 187.283279,290.332550 191.941940,286.072205 
	C197.116241,281.340302 197.196243,276.178345 192.199738,267.657715 
	C193.281006,266.217957 194.457275,264.815125 195.445328,263.290253 
	C196.436020,261.761353 197.431946,260.186646 198.094482,258.501801 
	C205.237991,240.336212 203.826538,222.647446 194.549805,205.640823 
	C190.526901,198.265793 184.640213,192.698837 176.226746,190.415634 
	C166.190140,187.691956 156.290054,190.243240 151.597000,196.717606 
	C146.736160,203.423431 147.473068,211.911896 153.931763,221.255142 
	C156.761932,225.349274 159.880127,229.244278 163.002213,233.953888 
	C168.318222,245.066818 169.688477,256.298157 165.088776,267.708618 
	C164.521240,267.731445 163.953690,267.754303 163.386154,267.777130 
	C163.386154,259.247253 163.386154,250.717392 163.386154,242.161865 
	C156.564499,242.161865 150.377670,242.161865 143.768082,242.161865 
	C143.768082,250.940720 143.768082,259.360016 143.768082,268.065369 
	C134.552994,268.065369 125.766258,268.065369 116.743896,268.065369 
	C116.743896,274.603973 116.743896,280.834961 116.743896,287.633057 
	C125.935104,287.633057 134.836716,287.633057 143.738327,287.633057 
	C144.015320,288.116425 144.292313,288.599762 144.569290,289.083130 
	C143.295319,290.324768 142.237946,292.141998 140.712708,292.716003 
	C129.589142,296.902252 118.559929,296.337036 107.713020,291.498871 
	C106.107407,290.782684 104.385017,290.328339 102.716652,289.752899 
	C120.786293,303.373260 143.749863,301.744141 158.919601,286.489777 
	C173.491577,271.836487 175.599335,248.745514 163.750397,231.386551 
	C159.941635,225.943146 155.572250,220.801468 152.445129,214.991196 
	C146.601303,204.133240 152.140472,193.423920 164.338470,191.584412 
	C174.713760,190.019806 183.403152,193.545029 189.813446,201.928604 
	C198.517838,213.312454 201.327957,226.445419 200.502701,240.482819 
	C200.017990,248.727463 198.118729,256.582031 193.092117,263.414581 
	C191.491058,265.590820 190.083008,266.682068 186.934830,265.717285 
	C180.055756,263.609161 172.582199,268.635498 170.306503,276.139740 
	C167.928375,279.567596 165.550232,282.995422 163.172104,286.423279 
	C163.349075,286.871338 163.526062,287.319397 163.703049,287.767456 
	C167.326126,286.891083 170.949219,286.014709 175.157379,285.690002 
M162.591446,291.175171 
	C162.534882,290.236908 162.478333,289.298676 162.437851,288.627197 
	C156.886627,291.883911 151.500626,294.972534 146.212341,298.220245 
	C145.387085,298.727051 144.545212,299.936737 144.501175,300.859070 
	C144.312988,304.801117 144.421051,308.757294 144.421051,312.729309 
	C150.726837,312.729309 156.461151,312.729309 162.591446,312.729309 
	C162.591446,305.636200 162.591446,298.838379 162.591446,291.175171 
M316.568481,257.327759 
	C316.443726,257.811768 316.318970,258.295746 316.194214,258.779755 
	C318.358704,259.015747 320.523163,259.251740 322.687653,259.487732 
	C322.771149,258.880219 322.854645,258.272705 322.938141,257.665222 
	C321.052185,257.473541 319.166260,257.281891 316.568481,257.327759 
M234.428543,265.060577 
	C234.311829,264.525970 234.195114,263.991394 234.078400,263.456787 
	C233.608932,264.458069 233.139450,265.459351 232.669983,266.460632 
	C233.159546,266.178284 233.649124,265.895935 234.428543,265.060577 
M319.441040,261.694275 
	C319.713715,261.980164 319.986389,262.266022 320.259064,262.551910 
	C320.376892,262.437225 320.604462,262.230469 320.596680,262.221191 
	C320.343933,261.920074 320.068573,261.637970 319.441040,261.694275 
M225.284912,261.420929 
	C225.000290,261.692780 224.712692,261.961853 224.446243,262.250458 
	C224.438721,262.258636 224.656784,262.475037 224.769653,262.594360 
	C225.055038,262.321533 225.340424,262.048676 225.284912,261.420929 
z"/>
<path fill="#08888A" opacity="1.000000" stroke="none" 
	d="
M163.888611,232.052979 
	C175.599335,248.745514 173.491577,271.836487 158.919601,286.489777 
	C143.749863,301.744141 120.786293,303.373260 102.716652,289.752899 
	C104.385017,290.328339 106.107407,290.782684 107.713020,291.498871 
	C118.559929,296.337036 129.589142,296.902252 140.712708,292.716003 
	C142.237946,292.141998 143.295319,290.324768 144.569290,289.083130 
	C144.292313,288.599762 144.015320,288.116425 143.738327,287.633057 
	C134.836716,287.633057 125.935104,287.633057 116.743896,287.633057 
	C116.743896,280.834961 116.743896,274.603973 116.743896,268.065369 
	C125.766258,268.065369 134.552994,268.065369 143.768082,268.065369 
	C143.768082,259.360016 143.768082,250.940720 143.768082,242.161865 
	C150.377670,242.161865 156.564499,242.161865 163.386154,242.161865 
	C163.386154,250.717392 163.386154,259.247253 163.386154,267.777130 
	C163.953690,267.754303 164.521240,267.731445 165.088776,267.708618 
	C169.688477,256.298157 168.318222,245.066818 163.053452,233.352753 
	C163.365997,232.518738 163.627304,232.285858 163.888611,232.052979 
z"/>
<path fill="#239597" opacity="1.000000" stroke="none" 
	d="
M163.819504,231.719757 
	C163.627304,232.285858 163.365997,232.518738 162.986115,232.990662 
	C159.880127,229.244278 156.761932,225.349274 153.931763,221.255142 
	C147.473068,211.911896 146.736160,203.423431 151.597000,196.717606 
	C156.290054,190.243240 166.190140,187.691956 176.226746,190.415634 
	C184.640213,192.698837 190.526901,198.265793 194.549805,205.640823 
	C203.826538,222.647446 205.237991,240.336212 198.094482,258.501801 
	C197.431946,260.186646 196.436020,261.761353 195.445328,263.290253 
	C194.457275,264.815125 193.281006,266.217957 192.199738,267.657715 
	C197.196243,276.178345 197.116241,281.340302 191.941940,286.072205 
	C187.283279,290.332550 181.576401,290.202606 174.655548,285.214386 
	C173.084717,281.781464 172.015747,278.824127 170.946762,275.866821 
	C172.582199,268.635498 180.055756,263.609161 186.934830,265.717285 
	C190.083008,266.682068 191.491058,265.590820 193.092117,263.414581 
	C198.118729,256.582031 200.017990,248.727463 200.502701,240.482819 
	C201.327957,226.445419 198.517838,213.312454 189.813446,201.928604 
	C183.403152,193.545029 174.713760,190.019806 164.338470,191.584412 
	C152.140472,193.423920 146.601303,204.133240 152.445129,214.991196 
	C155.572250,220.801468 159.941635,225.943146 163.819504,231.719757 
M178.584732,268.929535 
	C174.777313,271.608612 173.119217,275.260986 174.372269,279.765106 
	C175.479553,283.745300 178.201248,286.384277 182.455063,286.943512 
	C186.857864,287.522400 190.352921,285.846252 192.527924,281.982147 
	C194.713089,278.099976 194.341476,274.201447 191.391678,270.865326 
	C188.020004,267.052094 183.857132,266.277557 178.584732,268.929535 
z"/>
<path fill="#147274" opacity="1.000000" stroke="none" 
	d="
M162.591446,291.607849 
	C162.591446,298.838379 162.591446,305.636200 162.591446,312.729309 
	C156.461151,312.729309 150.726837,312.729309 144.421051,312.729309 
	C144.421051,308.757294 144.312988,304.801117 144.501175,300.859070 
	C144.545212,299.936737 145.387085,298.727051 146.212341,298.220245 
	C151.500626,294.972534 156.886627,291.883911 162.437851,288.627197 
	C162.478333,289.298676 162.534882,290.236908 162.591446,291.607849 
z"/>
<path fill="#E1F5F5" opacity="1.000000" stroke="none" 
	d="
M284.013641,279.013611 
	C278.020721,283.916321 266.841064,282.840942 265.507812,276.154572 
	C265.097015,278.555145 264.857941,279.951965 264.514099,281.961243 
	C259.207397,281.961243 253.917343,282.120911 248.654602,281.813263 
	C247.713043,281.758209 246.168793,279.799225 246.122910,278.669739 
	C245.873047,272.520782 245.871933,266.350739 246.130020,260.202393 
	C246.175995,259.107147 247.791473,257.223724 248.770050,257.164886 
	C253.883163,256.857513 259.024597,257.021393 264.572449,257.021393 
	C264.572449,259.340759 264.572449,261.232758 264.572449,263.729736 
	C261.321259,263.900787 257.976288,264.076782 254.631287,264.252777 
	C254.606613,264.694702 254.581924,265.136597 254.557236,265.578491 
	C256.498840,265.716156 258.538086,265.537018 260.349976,266.095459 
	C261.706451,266.513519 263.491333,267.685272 263.813599,268.868011 
	C264.479980,271.313507 263.222321,273.034729 260.343994,272.982025 
	C258.565674,272.949432 256.786255,272.975983 254.387360,272.975983 
	C255.145966,273.620056 255.248779,273.784668 255.367828,273.797363 
	C266.007843,274.935089 266.007935,274.934326 266.015564,264.269043 
	C266.020752,257.010010 266.026825,256.828552 273.552216,257.080292 
	C277.599304,257.215637 281.621338,258.098694 285.654694,258.644379 
	C285.590668,259.081543 285.526642,259.518707 285.462585,259.955902 
	C281.003845,259.635345 276.540955,259.362396 272.087799,258.977386 
	C269.177063,258.725677 267.802002,259.677734 267.950134,262.860748 
	C268.158813,267.345612 268.125153,271.851807 267.960358,276.340302 
	C267.854187,279.232025 269.065277,280.257935 271.798401,279.996368 
	C275.578247,279.634613 279.364227,279.336761 283.574280,279.006287 
	C284.000977,279.001038 284.013641,279.013611 284.013641,279.013611 
M247.982574,270.478607 
	C247.986130,272.637543 247.727417,274.843201 248.099991,276.936462 
	C248.296814,278.042236 249.527420,279.740692 250.404907,279.814117 
	C254.197357,280.131561 258.035522,280.033752 261.847473,279.867065 
	C262.536316,279.836945 263.180054,278.774628 263.844635,278.188873 
	C263.140137,277.475586 262.501251,276.245880 261.718781,276.146454 
	C259.428802,275.855591 257.034607,276.279846 254.778015,275.878967 
	C253.751968,275.696686 252.953979,274.230682 252.052536,273.346985 
	C252.890656,272.569580 253.609451,271.485291 254.600098,271.100128 
	C255.612549,270.706482 256.966034,271.247498 258.035309,270.927948 
	C259.379639,270.526245 260.587006,269.666046 261.853455,269.003693 
	C260.587128,268.341156 259.355072,267.594971 258.038452,267.055054 
	C257.469513,266.821747 256.624664,267.228638 256.081299,266.971893 
	C254.685303,266.312195 253.387817,265.444031 252.050949,264.659210 
	C253.455856,263.776947 254.759201,262.510956 256.290344,262.105713 
	C258.391083,261.549713 260.664551,261.646332 262.863983,261.463287 
	C262.850433,260.838409 262.836884,260.213562 262.823334,259.588684 
	C261.505219,259.390289 260.191437,259.057068 258.868347,259.014801 
	C247.983276,258.666779 247.982758,258.683167 247.982574,270.478607 
z"/>
<path fill="#E1F5F5" opacity="1.000000" stroke="none" 
	d="
M301.016296,278.013428 
	C302.631104,278.976410 304.245911,279.939362 305.733856,280.826691 
	C305.838287,280.780273 305.698578,280.891083 305.552429,280.900330 
	C291.988678,281.759277 291.988647,281.758759 291.988861,268.260345 
	C291.989044,256.357422 291.989838,256.343597 304.091461,257.033081 
	C305.151428,257.093475 306.191986,257.493530 306.844360,257.644135 
	C305.092072,259.119415 302.969177,260.244476 301.877258,262.007935 
	C300.731384,263.858368 300.229614,266.296051 300.069427,268.521942 
	C299.857941,271.460938 300.252869,274.443573 300.693878,277.703979 
	C301.000641,278.000488 301.016296,278.013428 301.016296,278.013428 
M293.011322,265.619568 
	C293.021118,269.600403 292.892242,273.590302 293.151794,277.554779 
	C293.207092,278.399780 294.572174,279.559998 295.528931,279.801147 
	C296.144958,279.956390 297.803741,278.718689 297.822174,278.071930 
	C297.987152,272.274841 297.949615,266.468628 297.779602,260.670746 
	C297.763214,260.112122 296.404816,259.110138 295.747040,259.169769 
	C294.833710,259.252655 293.529602,259.964844 293.230896,260.733398 
	C292.778748,261.896545 293.048401,263.340271 293.011322,265.619568 
z"/>
<path fill="#E1F5F5" opacity="1.000000" stroke="none" 
	d="
M234.989044,272.991486 
	C235.475876,271.447906 235.962708,269.904358 236.449524,268.360779 
	C236.969070,268.443329 237.488602,268.525879 238.008148,268.608429 
	C238.008148,271.497650 237.833008,274.403778 238.109467,277.266296 
	C238.198242,278.185394 239.479279,278.989380 240.214844,279.846008 
	C240.803085,279.009979 241.864044,278.193634 241.899887,277.334564 
	C242.079605,273.027344 242.087967,268.705811 241.948517,264.396027 
	C241.893524,262.696533 241.298599,261.014557 240.949524,259.324585 
	C239.237457,259.899689 237.525375,260.474762 235.596512,261.122681 
	C235.580338,258.293060 237.064133,256.988251 240.204727,256.984436 
	C243.424423,256.980530 244.040619,258.811493 244.003891,261.502777 
	C243.931442,266.811981 243.933365,272.123535 244.003632,277.432831 
	C244.038834,280.092651 243.499359,281.935455 240.260025,282.018250 
	C236.935883,282.103241 235.819733,280.556030 235.974121,277.467255 
	C236.038803,276.173553 235.729813,274.861176 235.295258,273.278625 
	C234.999802,272.999939 234.989044,272.991486 234.989044,272.991486 
z"/>
<path fill="#147274" opacity="1.000000" stroke="none" 
	d="
M170.626633,276.003296 
	C172.015747,278.824127 173.084717,281.781464 174.363007,284.938568 
	C170.949219,286.014709 167.326126,286.891083 163.703049,287.767456 
	C163.526062,287.319397 163.349075,286.871338 163.172104,286.423279 
	C165.550232,282.995422 167.928375,279.567596 170.626633,276.003296 
z"/>
<path fill="#E1F5F5" opacity="1.000000" stroke="none" 
	d="
M222.985199,259.018829 
	C221.530365,259.090149 220.075531,259.161469 218.029129,259.261810 
	C218.029129,265.478638 217.936691,271.404907 218.128387,277.321991 
	C218.157288,278.213531 219.512283,279.062164 220.253860,279.930634 
	C221.159943,279.059845 222.690750,278.288361 222.848007,277.298584 
	C223.229568,274.897034 222.972092,272.393951 223.849152,269.667084 
	C224.236496,270.533264 224.623825,271.399414 225.005737,272.632629 
	C225.000320,272.999695 224.988770,273.012085 224.988770,273.012085 
	C224.660568,274.061890 224.117920,275.096161 224.040588,276.164124 
	C223.666550,281.329742 223.399216,281.603455 217.039032,281.538239 
	C217.039032,274.051483 216.577896,266.488922 217.247803,259.027924 
	C217.549622,255.666458 220.656555,256.570099 222.927094,258.611481 
	C223.000504,259.000000 222.985199,259.018829 222.985199,259.018829 
z"/>
<path fill="#E1F5F5" opacity="1.000000" stroke="none" 
	d="
M282.012207,274.009308 
	C279.370300,274.877075 276.728394,275.744812 273.367004,276.848907 
	C273.367004,271.672882 273.367004,267.789642 273.367004,263.398560 
	C275.395599,263.398560 277.430237,263.398560 279.732605,263.699219 
	C280.000336,263.999878 279.991425,264.011261 279.554932,264.010864 
	C277.540710,264.118713 275.962982,264.226959 274.371826,264.336090 
	C274.371826,268.094940 274.371826,271.314423 274.371826,274.906982 
	C277.175201,274.567657 279.580353,274.276550 281.991455,273.991333 
	C281.997406,273.997192 282.012207,274.009308 282.012207,274.009308 
z"/>
<path fill="#E1F5F5" opacity="1.000000" stroke="none" 
	d="
M316.924377,257.208984 
	C319.166260,257.281891 321.052185,257.473541 322.938141,257.665222 
	C322.854645,258.272705 322.771149,258.880219 322.687653,259.487732 
	C320.523163,259.251740 318.358704,259.015747 316.194214,258.779755 
	C316.318970,258.295746 316.443726,257.811768 316.924377,257.208984 
z"/>
<path fill="#E1F5F5" opacity="1.000000" stroke="none" 
	d="
M283.013245,266.986938 
	C282.894897,269.209229 282.776550,271.431519 282.335205,273.831543 
	C282.012207,274.009308 281.997406,273.997192 281.997131,273.598083 
	C282.327545,271.135437 282.658264,269.071869 282.994568,267.004028 
	C283.000183,266.999695 283.013275,266.986938 283.013245,266.986938 
z"/>
<path fill="#E1F5F5" opacity="1.000000" stroke="none" 
	d="
M234.283630,265.337097 
	C233.649124,265.895935 233.159546,266.178284 232.669983,266.460632 
	C233.139450,265.459351 233.608932,264.458069 234.078400,263.456787 
	C234.195114,263.991394 234.311829,264.525970 234.283630,265.337097 
z"/>
<path fill="#E1F5F5" opacity="1.000000" stroke="none" 
	d="
M313.014679,262.014069 
	C312.608917,262.799042 312.203186,263.583984 311.797424,264.368958 
	C311.209229,263.795197 310.621033,263.221405 310.016235,262.323853 
	C309.999603,262.000092 310.010712,261.986572 310.010712,261.986572 
	C310.836151,262.050873 311.661560,262.115204 312.743683,262.089966 
	C313.000366,262.000366 313.014679,262.014069 313.014679,262.014069 
z"/>
<path fill="#E1F5F5" opacity="1.000000" stroke="none" 
	d="
M280.006775,263.993225 
	C281.010071,264.739777 282.006927,265.492950 283.008514,266.616547 
	C283.013275,266.986938 283.000183,266.999695 282.716064,266.871155 
	C281.618408,265.832153 280.804932,264.921692 279.991425,264.011261 
	C279.991425,264.011261 280.000336,263.999878 280.006775,263.993225 
z"/>
<path fill="#E1F5F5" opacity="1.000000" stroke="none" 
	d="
M234.017456,274.013489 
	C233.779602,274.892700 233.541763,275.771881 233.303909,276.651093 
	C232.990662,276.532013 232.677414,276.412964 232.364166,276.293915 
	C232.717865,275.616516 233.071579,274.939117 233.712814,274.130859 
	C234.000351,274.000000 234.017471,274.013489 234.017456,274.013489 
z"/>
<path fill="#E1F5F5" opacity="1.000000" stroke="none" 
	d="
M287.992676,275.994598 
	C288.225861,275.113861 288.459076,274.233093 288.692291,273.352356 
	C289.006042,273.470947 289.319824,273.589539 289.633575,273.708130 
	C289.278809,274.383179 288.924072,275.058228 288.284668,275.866638 
	C288.000000,276.000000 287.992676,275.994598 287.992676,275.994598 
z"/>
<path fill="#E1F5F5" opacity="1.000000" stroke="none" 
	d="
M225.006592,272.993591 
	C225.517990,273.292999 226.023117,273.598480 226.528244,273.903961 
	C226.347580,274.113647 226.166916,274.323334 225.986252,274.533020 
	C225.678757,274.214294 225.371262,273.895569 225.026276,273.294464 
	C224.988770,273.012085 225.000320,272.999695 225.006592,272.993591 
z"/>
<path fill="#E1F5F5" opacity="1.000000" stroke="none" 
	d="
M319.618774,261.523651 
	C320.068573,261.637970 320.343933,261.920074 320.596680,262.221191 
	C320.604462,262.230469 320.376892,262.437225 320.259064,262.551910 
	C319.986389,262.266022 319.713715,261.980164 319.618774,261.523651 
z"/>
<path fill="#E1F5F5" opacity="1.000000" stroke="none" 
	d="
M225.455353,261.598389 
	C225.340424,262.048676 225.055038,262.321533 224.769653,262.594360 
	C224.656784,262.475037 224.438721,262.258636 224.446243,262.250458 
	C224.712692,261.961853 225.000290,261.692780 225.455353,261.598389 
z"/>
<path fill="#E1F5F5" opacity="1.000000" stroke="none" 
	d="
M312.993530,261.993469 
	C313.298279,261.476288 313.609894,260.966003 313.921478,260.455688 
	C314.130188,260.638428 314.338928,260.821198 314.547638,261.003937 
	C314.226593,261.317719 313.905518,261.631500 313.299561,261.979675 
	C313.014679,262.014069 313.000366,262.000366 312.993530,261.993469 
z"/>
<path fill="#E1F5F5" opacity="1.000000" stroke="none" 
	d="
M283.996277,278.994507 
	C284.459442,278.667206 284.927338,278.346436 285.697632,278.012817 
	C286.000000,277.999969 286.009766,278.008026 286.009766,278.008026 
	C285.543213,278.331238 285.076660,278.654480 284.311890,278.995667 
	C284.013641,279.013611 284.000977,279.001038 283.996277,278.994507 
z"/>
<path fill="#E1F5F5" opacity="1.000000" stroke="none" 
	d="
M233.993683,273.991547 
	C234.086273,273.659241 234.272247,273.396881 234.766998,273.093750 
	C234.989044,272.991486 234.999802,272.999939 235.003922,273.005127 
	C234.912476,273.335327 234.729111,273.599304 234.237717,273.907898 
	C234.017471,274.013489 234.000351,274.000000 233.993683,273.991547 
z"/>
<path fill="#E1F5F5" opacity="1.000000" stroke="none" 
	d="
M309.992615,262.005707 
	C309.657379,261.918182 309.394318,261.732635 309.098206,261.227173 
	C309.000000,260.999695 309.012268,260.984711 309.012268,260.984711 
	C309.341217,261.077545 309.603577,261.264008 309.905029,261.765350 
	C310.010712,261.986572 309.999603,262.000092 309.992615,262.005707 
z"/>
<path fill="#E1F5F5" opacity="1.000000" stroke="none" 
	d="
M286.987946,276.990845 
	C287.080383,276.661133 287.266266,276.397217 287.769104,276.096863 
	C287.992676,275.994598 288.000000,276.000000 288.002686,276.003479 
	C287.910614,276.333954 287.726288,276.598602 287.226196,276.900421 
	C287.000000,277.000000 286.987946,276.990845 286.987946,276.990845 
z"/>
<path fill="#E1F5F5" opacity="1.000000" stroke="none" 
	d="
M287.004639,277.006012 
	C286.913910,277.338318 286.728149,277.600555 286.230896,277.903381 
	C286.009766,278.008026 286.000000,277.999969 285.995911,277.994629 
	C286.084412,277.661652 286.268951,277.398529 286.766693,277.095367 
	C286.987946,276.990845 287.000000,277.000000 287.004639,277.006012 
z"/>
<path fill="#E1F5F5" opacity="1.000000" stroke="none" 
	d="
M300.994354,277.992859 
	C301.094574,277.957397 301.201080,277.929535 301.161926,277.957520 
	C301.016296,278.013428 301.000641,278.000488 300.994354,277.992859 
z"/>
<path fill="#E1F5F5" opacity="1.000000" stroke="none" 
	d="
M308.992676,261.005707 
	C308.863953,260.856720 308.742584,260.701721 308.621216,260.546692 
	C308.714081,260.596191 308.806976,260.645691 308.956055,260.839966 
	C309.012268,260.984711 309.000000,260.999695 308.992676,261.005707 
z"/>
<path fill="#E1F5F5" opacity="1.000000" stroke="none" 
	d="
M223.009979,258.992310 
	C223.140823,259.140625 223.262192,259.296600 223.383575,259.452606 
	C223.289902,259.403961 223.196243,259.355286 223.043884,259.162720 
	C222.985199,259.018829 223.000504,259.000000 223.009979,258.992310 
z"/>
<path fill="#E1F5F5" opacity="1.000000" stroke="none" 
	d="
M178.898254,268.713440 
	C183.857132,266.277557 188.020004,267.052094 191.391678,270.865326 
	C194.341476,274.201447 194.713089,278.099976 192.527924,281.982147 
	C190.352921,285.846252 186.857864,287.522400 182.455063,286.943512 
	C178.201248,286.384277 175.479553,283.745300 174.372269,279.765106 
	C173.119217,275.260986 174.777313,271.608612 178.898254,268.713440 
M178.010666,272.438171 
	C175.419907,276.085632 175.418121,280.085663 178.901077,282.559204 
	C181.009186,284.056335 184.876785,284.381500 187.453125,283.594299 
	C190.936005,282.530090 191.970886,278.999512 191.135178,275.360901 
	C189.831741,269.685822 184.230576,268.167419 178.010666,272.438171 
z"/>
<path fill="#FFFFFF" opacity="1.000000" stroke="none" 
	d="
M247.982559,269.989227 
	C247.982758,258.683167 247.983276,258.666779 258.868347,259.014801 
	C260.191437,259.057068 261.505219,259.390289 262.823334,259.588684 
	C262.836884,260.213562 262.850433,260.838409 262.863983,261.463287 
	C260.664551,261.646332 258.391083,261.549713 256.290344,262.105713 
	C254.759201,262.510956 253.455856,263.776947 252.050934,264.659210 
	C253.387817,265.444031 254.685303,266.312195 256.081299,266.971893 
	C256.624664,267.228638 257.469513,266.821747 258.038452,267.055054 
	C259.355072,267.594971 260.587128,268.341156 261.853455,269.003693 
	C260.587006,269.666046 259.379639,270.526245 258.035309,270.927948 
	C256.966034,271.247498 255.612549,270.706482 254.600098,271.100128 
	C253.609451,271.485291 252.890656,272.569580 252.052536,273.346985 
	C252.953979,274.230682 253.751968,275.696686 254.778015,275.878967 
	C257.034607,276.279846 259.428802,275.855591 261.718781,276.146454 
	C262.501251,276.245880 263.140137,277.475586 263.844635,278.188873 
	C263.180054,278.774628 262.536316,279.836945 261.847473,279.867065 
	C258.035522,280.033752 254.197357,280.131561 250.404907,279.814117 
	C249.527420,279.740692 248.296814,278.042236 248.099991,276.936462 
	C247.727417,274.843201 247.986130,272.637543 247.982559,269.989227 
z"/>
<path fill="#FFFFFF" opacity="1.000000" stroke="none" 
	d="
M293.011353,265.142181 
	C293.048401,263.340271 292.778748,261.896545 293.230896,260.733398 
	C293.529602,259.964844 294.833710,259.252655 295.747040,259.169769 
	C296.404816,259.110138 297.763214,260.112122 297.779602,260.670746 
	C297.949615,266.468628 297.987152,272.274841 297.822174,278.071930 
	C297.803741,278.718689 296.144958,279.956390 295.528931,279.801147 
	C294.572174,279.559998 293.207092,278.399780 293.151794,277.554779 
	C292.892242,273.590302 293.021118,269.600403 293.011353,265.142181 
z"/>
<path fill="#FFFFFF" opacity="1.000000" stroke="none" 
	d="
M279.554932,264.010864 
	C280.804932,264.921692 281.618408,265.832153 282.710449,266.875458 
	C282.658264,269.071869 282.327545,271.135437 281.991150,273.592224 
	C279.580353,274.276550 277.175201,274.567657 274.371826,274.906982 
	C274.371826,271.314423 274.371826,268.094940 274.371826,264.336090 
	C275.962982,264.226959 277.540710,264.118713 279.554932,264.010864 
z"/>
<path fill="#147274" opacity="1.000000" stroke="none" 
	d="
M178.287903,272.164795 
	C184.230576,268.167419 189.831741,269.685822 191.135178,275.360901 
	C191.970886,278.999512 190.936005,282.530090 187.453125,283.594299 
	C184.876785,284.381500 181.009186,284.056335 178.901077,282.559204 
	C175.418121,280.085663 175.419907,276.085632 178.287903,272.164795 
z"/>
</svg>